<svg xmlns="http://www.w3.org/2000/svg" viewBox="0 0 100 125" x="0px" y="0px">
<title>bot1_dead</title>
<g fill="none" fill-rule="evenodd">
<path d="M61.1715729,60 L59.7573593,58.5857864 L58.3431458,57.1715729 L61.1715729,54.3431458 L62.5857864,55.7573593 L64,57.1715729 L65.4142136,55.7573593 L66.8284271,54.3431458 L69.6568542,57.1715729 L68.2426407,58.5857864 L66.8284271,60 L68.2426407,61.4142136 L69.6568542,62.8284271 L66.8284271,65.6568542 L65.4142136,64.2426407 L64,62.8284271 L62.5857864,64.2426407 L61.1715729,65.6568542 L58.3431458,62.8284271 L59.7573593,61.4142136 L61.1715729,60 Z M33.1715729,60 L31.7573593,58.5857864 L30.3431458,57.1715729 L33.1715729,54.3431458 L34.5857864,55.7573593 L36,57.1715729 L37.4142136,55.7573593 L38.8284271,54.3431458 L41.6568542,57.1715729 L40.2426407,58.5857864 L38.8284271,60 L40.2426407,61.4142136 L41.6568542,62.8284271 L38.8284271,65.6568542 L37.4142136,64.2426407 L36,62.8284271 L34.5857864,64.2426407 L33.1715729,65.6568542 L30.3431458,62.8284271 L31.7573593,61.4142136 L33.1715729,60 Z" fill="#faebd7"/>
<path d="M81.1374158,30.3397781 C90,39.0153006 90,50 90,50 L90,70 C90,70 90,90 50,90 C10,90 10,70 10,70 L10,50 C10,50 10,39.0044239 18.8757506,30.3268977 L8.26908535,12.0020725 C7.71578346,11.0461491 8.04199423,9.82257681 8.99769749,9.26914743 C9.95340076,8.71571805 11.1766911,9.04200398 11.729993,9.99792746 L21.970129,27.6895106 C27.8958591,23.2892727 36.7550811,20 50,20 C63.2552955,20 72.1180196,23.2944286 78.043793,27.6998546 L88.2922771,9.99792746 C88.8457065,9.04200398 90.0692787,8.71571805 91.0252022,9.26914743 C91.9811257,9.82257681 92.3074116,11.0461491 91.7539822,12.0020725 L81.1374158,30.3397781 Z M14,50 L14,70 C14,69.9724452 14.0069729,70.0770394 14.037923,70.2936896 C14.1025381,70.7459952 14.2244193,71.2741473 14.4197332,71.8600889 C15.0099728,73.6308077 16.093439,75.4365847 17.8284271,77.1715729 C23.24535,82.5884957 33.4798628,86 50,86 C66.5201372,86 76.75465,82.5884957 82.1715729,77.1715729 C83.906561,75.4365847 84.9900272,73.6308077 85.5802668,71.8600889 C85.7755807,71.2741473 85.8974619,70.7459952 85.962077,70.2936896 C85.9930271,70.0770394 86,69.9724452 86,70 L86,50 C86,49.8884469 85.9860708,49.5750394 85.9398931,49.0901739 C85.8573922,48.2239138 85.706612,47.2438431 85.4702518,46.1802218 C84.7903506,43.1206666 83.5663124,40.0605712 81.6717988,37.2188008 C76.1879285,28.9929953 66.2019379,24 50,24 C33.7980621,24 23.8120715,28.9929953 18.3282012,37.2188008 C16.4336876,40.0605712 15.2096494,43.1206666 14.5297482,46.1802218 C14.293388,47.2438431 14.1426078,48.2239138 14.0601069,49.0901739 C14.0139292,49.5750394 14,50 14,50 Z" fill="#faebd7"/>
<rect stroke="#faebd7" stroke-width="4" x="20" y="45" width="60" height="30" rx="15"/>
</g>
<text x="0" y="115" fill="#faebd7" font-size="5px" font-weight="bold" font-family="'Helvetica Neue', Helvetica, Arial-Unicode, Arial, Sans-serif">Created by Arsenty</text>
<text x="0" y="120" fill="#faebd7" font-size="5px" font-weight="bold" font-family="'Helvetica Neue', Helvetica, Arial-Unicode, Arial, Sans-serif">from the Noun Project</text></svg>